<?xml version="1.0" encoding="utf-8"?>
<!-- Generator: Adobe Illustrator 24.3.0, SVG Export Plug-In . SVG Version: 6.00 Build 0)  -->
<svg version="1.1" xmlns="http://www.w3.org/2000/svg" xmlns:xlink="http://www.w3.org/1999/xlink" x="0px" y="0px"
	 viewBox="0 0 30 50" style="enable-background:new 0 0 30 50;" xml:space="preserve">
<style type="text/css">
	.st0{fill:#FFFFFF;}
</style>
<g id="Layer_1">
	<g>
		<path class="st0" d="M22.4,38.3H8c-1.8,0-2.2-0.4-2.2-2.2V8.5c0-1.8,0.4-2.2,2.2-2.2h14.5c1.8,0,2.2,0.4,2.2,2.2v27.6
			C24.6,37.9,24.2,38.3,22.4,38.3z M8,7.3c-0.7,0-1.2,0.5-1.2,1.2v27.6c0,0.7,0.5,1.2,1.2,1.2h14.5c0.7,0,1.2-0.5,1.2-1.2V8.5
			c0-0.7-0.5-1.2-1.2-1.2H8z"/>
	</g>
	<path class="st0" d="M25.9,48.3H4.5c-1.8,0-3.2-1.4-3.2-3.2V4.5c0-1.8,1.4-3.2,3.2-3.2h21.5c1.8,0,3.2,1.4,3.2,3.2v40.6
		C29.1,46.9,27.7,48.3,25.9,48.3z M4.5,3.3c-0.7,0-1.2,0.5-1.2,1.2v40.6c0,0.7,0.5,1.2,1.2,1.2h21.5c0.7,0,1.2-0.5,1.2-1.2V4.5
		c0-0.7-0.5-1.2-1.2-1.2H4.5z"/>
	<circle class="st0" cx="15.5" cy="42.8" r="2.5"/>
</g>
<g id="Layer_2">
</g>
</svg>
