<?xml version="1.0" encoding="iso-8859-1"?>
<!-- Generator: Adobe Illustrator 24.1.3, SVG Export Plug-In . SVG Version: 6.00 Build 0)  -->
<svg version="1.1" id="Layer_1" xmlns="http://www.w3.org/2000/svg" xmlns:xlink="http://www.w3.org/1999/xlink" x="0px" y="0px"
	 viewBox="0 0 212.434 222.137" style="enable-background:new 0 0 212.434 222.137;" xml:space="preserve">
<g>
	<path style="fill:#FFFFFF;" d="M113.139,62.176h-3.864c3.826,15.195,16.232,25.053,34.311,27.28v59.876h-0.005v10.023
		c-0.108-0.014-0.219-0.025-0.327-0.041l-0.382-0.089l-0.012,0.031c-22.401-3.434-31.99-22.563-34.224-33.663l-0.017,0.013
		c-0.498-2.104-0.967-6.424-0.707-6.448c0.179,0.309,0.451,1.29,1.07,2.655c0.743,1.475,1.583,2.978,2.546,4.481
		c3.998,6.237,10.92,13.729,22.061,16.868l-0.659-4.113c-19.665-6.626-24.829-28.768-24.831-32.149l-0.009-0.003h-0.015v-0.168
		c-0.157-1.788-0.417-5.452-0.164-5.475c0.182,0.313,0.458,1.319,1.099,2.718c0.736,1.456,1.566,2.941,2.517,4.425
		c3.621,5.648,9.652,12.314,19.031,15.857l-0.693-4.322c-15.548-7.043-20.801-24.123-21.638-29.621l-0.012-0.007
		c-0.254-1.547-1.072-8.938-0.14-7.044v-0.025c0.938,2.061,2.076,4.214,3.452,6.363c3.186,4.971,8.238,10.733,15.794,14.46
		l-0.741-4.625c-9.182-5.492-14.161-14.584-16.562-21.264c-1.208-3.069-2.845-8.136-3.551-13.725h-0.524
		c-0.646,5.113-2.072,9.787-3.236,12.897c-2.257,6.664-7.183,16.155-16.551,21.897l-0.75,4.682
		c7.397-3.731,12.357-9.415,15.503-14.324c1.367-2.134,2.501-4.272,3.434-6.32c0.948-1.97,0.125,5.473-0.131,7.025l-0.002,0.001
		c-0.83,5.461-6.013,22.392-21.352,29.515l-0.693,4.327c9.216-3.569,15.161-10.158,18.745-15.749
		c0.917-1.432,1.721-2.863,2.438-4.27c0.694-1.481,0.982-2.548,1.171-2.873c0.257,0.023-0.018,3.845-0.174,5.589v0.055h-0.005
		c0,3.36-5.111,25.314-24.547,32.057l-0.66,4.122c10.974-3.186,17.815-10.6,21.779-16.783c0.93-1.45,1.742-2.9,2.466-4.326
		c0.672-1.447,0.956-2.49,1.142-2.811c0.26,0.024-0.21,4.344-0.708,6.448l-0.005-0.004c-2.238,11.103-11.829,30.227-34.233,33.656
		l-0.012-0.033l-0.398,0.092c-0.102,0.014-0.208,0.025-0.311,0.039v-10.025h-0.005V89.456c18.078-2.227,30.484-12.085,34.311-27.28
		h-3.865c-2.185,7.545-9.341,21.545-32.489,23.75l-1.688,0.161v63.244v14.117c1.219-0.063,2.411-0.163,3.57-0.303h0.165h0.001
		l0.163-0.041c22.197-2.853,33.191-19.772,37.207-32.224c4.014,12.448,15.002,29.359,37.181,32.221l0.177,0.044h0h0.177
		c1.156,0.141,2.343,0.24,3.559,0.303v-7.894v-6.223V86.087l-1.689-0.161C122.479,83.722,115.323,69.722,113.139,62.176"/>
	<path style="fill:#FFFFFF;" d="M96.031,54.243l-0.489,1.121c-6.047,13.879-16.458,19.474-39.783,21.38l-1.714,0.14v74.389
		l3.731,2.188V80.313c22.882-2.115,34.139-8.295,40.681-22.338h15.517c6.64,14.292,17.897,20.564,40.682,22.677v72.809l3.732-2.188
		V77.222l-1.714-0.139c-22.919-1.874-33.702-7.76-39.783-21.719l-0.489-1.121H96.031z"/>
</g>
<g>
	<path style="fill:#FFFFFF;" d="M96.782,159.871h-0.947v0.288c-0.009,0.523-0.47,0.591-0.667,0.591l-0.001,0.003h-1.174v0.882h1.842
		v4.942h-1.842v0.882h4.474v-0.882h-1.684V159.871z"/>
	<path style="fill:#FFFFFF;" d="M104.265,163.508c0.736-0.334,1.094-0.926,1.094-1.751c0-1.283-1.052-2.053-2.368-2.053
		c-1.315,0-2.368,0.77-2.368,2.053c0,0.826,0.357,1.417,1.094,1.751c-0.81,0.312-1.305,0.982-1.305,1.919
		c0,1.507,1.158,2.198,2.578,2.198c1.421,0,2.579-0.691,2.579-2.198C105.57,164.489,105.075,163.82,104.265,163.508
		 M101.654,162.091v-0.48c0-0.669,0.601-1.015,1.337-1.015c0.737,0,1.337,0.346,1.337,1.015v0.48c0,0.67-0.6,1.015-1.337,1.015
		C102.254,163.106,101.654,162.761,101.654,162.091 M104.517,165.65c0,0.67-0.611,1.083-1.527,1.083
		c-0.915,0-1.526-0.413-1.526-1.083v-0.58c0-0.67,0.611-1.094,1.526-1.094c0.916,0,1.527,0.424,1.527,1.094V165.65z"/>
	<path style="fill:#FFFFFF;" d="M110.698,162.47c-0.663,0-1.284,0.257-1.674,0.781v-0.747c0-1.139,0.59-1.908,1.537-1.908
		c0.842,0,1.284,0.424,1.368,1.16h0.969c-0.126-1.294-0.842-2.053-2.336-2.053c-1.853,0-2.59,1.641-2.59,4.15
		c0,2.466,0.674,3.771,2.569,3.771c1.715,0,2.557-1.395,2.557-2.677C113.098,163.463,112.203,162.47,110.698,162.47
		 M112.045,165.293c0,0.793-0.6,1.44-1.505,1.44c-0.895,0-1.516-0.647-1.516-1.44v-0.625c0-0.791,0.621-1.327,1.527-1.327
		c0.904,0,1.495,0.536,1.495,1.327V165.293z"/>
	<path style="fill:#FFFFFF;" d="M115.148,159.871v0.881h3.259c-1.084,1.188-2.173,3.374-2.173,6.706h1.074
		c-0.017-4.695,2.131-6.686,2.361-6.936v-0.651H115.148z"/>
</g>
<rect y="84.134" style="fill:none;" width="54.462" height="54.462"/>
<rect x="157.972" y="84.134" style="fill:none;" width="54.462" height="54.462"/>
<rect x="77.718" style="fill:none;" width="54.462" height="54.462"/>
<rect x="77.718" y="167.675" style="fill:none;" width="54.462" height="54.462"/>
</svg>
