<?xml version="1.0" encoding="iso-8859-1"?>
<!-- Generator: Adobe Illustrator 24.0.3, SVG Export Plug-In . SVG Version: 6.00 Build 0)  -->
<svg version="1.1" id="Layer_1" xmlns="http://www.w3.org/2000/svg" xmlns:xlink="http://www.w3.org/1999/xlink" x="0px" y="0px"
	 viewBox="0 0 535.261 156.917" style="enable-background:new 0 0 535.261 156.917;" xml:space="preserve">
<g>
	<path style="fill:#FFFFFF;" d="M123.453,80.181c0-5.937,2.433-9.654,7.514-9.654c3.504,0,6.178,2.113,6.419,5.563h-2.54
		c-0.241-2.14-1.738-3.344-4.118-3.344c-2.541,0-4.466,1.846-4.466,4.466v5.616c0,2.541,2.086,4.466,4.626,4.466
		c2.407,0,4.011-1.016,4.253-3.476h2.54c-0.241,3.423-3.049,5.696-6.767,5.696C126.1,89.514,123.453,85.85,123.453,80.181"/>
</g>
<polygon style="fill:#FFFFFF;" points="153.644,80.903 145.059,80.903 145.059,89.113 142.519,89.113 142.519,70.928 
	145.059,70.928 145.059,78.63 153.644,78.63 153.644,70.928 156.184,70.928 156.184,89.113 153.644,89.113 "/>
<rect x="162.174" y="70.928" style="fill:#FFFFFF;" width="2.54" height="18.185"/>
<g>
	<path style="fill:#FFFFFF;" d="M169.876,80.181c0-5.937,2.433-9.654,7.514-9.654c3.504,0,6.178,2.113,6.419,5.563h-2.54
		c-0.241-2.14-1.738-3.344-4.118-3.344c-2.541,0-4.466,1.846-4.466,4.466v5.616c0,2.541,2.086,4.466,4.626,4.466
		c2.407,0,4.011-1.016,4.253-3.476h2.54c-0.241,3.423-3.049,5.696-6.766,5.696C172.523,89.514,169.876,85.85,169.876,80.181"/>
</g>
<path style="fill:#FFFFFF;" d="M191.803,82.534h5.803l-2.835-8.772h-0.107L191.803,82.534z M198.275,84.62h-7.141l-1.497,4.493
	h-2.621l6.285-18.185h2.834l6.311,18.185h-2.673L198.275,84.62z"/>
<g>
	<path style="fill:#FFFFFF;" d="M213.063,70.526c3.637,0,6.311,2.113,6.552,5.563h-2.54c-0.242-2.14-1.739-3.343-4.253-3.343
		c-2.674,0-4.6,1.845-4.6,4.466v5.616c0,2.541,2.006,4.466,4.734,4.466c2.807,0,4.412-1.551,4.412-4.385v-1.23h-4.118v-2.274h6.659
		v9.708h-2.434l-0.107-1.925c-0.935,1.391-2.326,2.326-4.626,2.326c-4.626,0-7.327-3.61-7.327-9.333
		C205.415,74.136,207.849,70.526,213.063,70.526"/>
	<path style="fill:#FFFFFF;" d="M237.264,82.828v-5.616c0-2.755-2.246-4.466-5-4.466c-2.755,0-5.001,1.711-5.001,4.466v5.616
		c0,2.754,2.246,4.466,5.001,4.466C235.018,87.294,237.264,85.583,237.264,82.828 M232.263,89.514c-5.482,0-7.809-3.797-7.809-9.493
		c0-5.696,2.326-9.494,7.809-9.494c5.482,0,7.809,3.798,7.809,9.494C240.072,85.716,237.745,89.514,232.263,89.514"/>
	<path style="fill:#FFFFFF;" d="M254.993,75.34c0,1.712,0.883,2.38,2.916,2.942l2.915,0.802c3.156,0.855,4.92,2.219,4.92,5.215
		c0,3.21-3.129,5.214-6.766,5.214c-3.638,0-6.766-1.738-7.087-5.696h2.54c0.268,2.46,2.086,3.477,4.493,3.477
		c2.407,0,4.279-1.016,4.279-2.941c0-1.551-0.856-2.381-2.755-2.915l-3.556-0.99c-2.969-0.828-4.386-2.433-4.386-5.107
		c0-2.728,2.487-4.814,6.231-4.814c3.477,0,6.232,1.632,6.552,5.35h-2.54c-0.214-2.407-2.033-3.13-4.012-3.13
		C256.438,72.746,254.993,73.735,254.993,75.34"/>
</g>
<polygon style="fill:#FFFFFF;" points="268.042,70.928 281.44,70.928 281.44,73.201 276.012,73.201 276.012,89.113 273.471,89.113 
	273.471,73.201 268.042,73.201 "/>
<path style="fill:#FFFFFF;" d="M286.655,82.534h5.803l-2.835-8.772h-0.107L286.655,82.534z M293.127,84.62h-7.141l-1.497,4.493
	h-2.621l6.285-18.185h2.835l6.31,18.185h-2.673L293.127,84.62z"/>
<polygon style="fill:#FFFFFF;" points="297.672,70.928 311.07,70.928 311.07,73.201 305.641,73.201 305.641,89.113 303.101,89.113 
	303.101,73.201 297.672,73.201 "/>
<polygon style="fill:#FFFFFF;" points="314.598,70.928 326.66,70.928 326.66,73.201 317.139,73.201 317.139,78.71 325.43,78.71 
	325.43,80.982 317.139,80.982 317.139,86.84 326.66,86.84 326.66,89.113 314.598,89.113 "/>
<g>
	<path style="fill:#FFFFFF;" d="M350.663,70.941h2.513v11.713c0,4.252-2.701,6.872-6.846,6.872c-4.145,0-6.846-2.62-6.846-6.872
		V70.941h2.541v11.9c0,2.755,1.551,4.466,4.305,4.466c2.782,0,4.333-1.684,4.333-4.466L350.663,70.941L350.663,70.941z"/>
</g>
<polygon style="fill:#FFFFFF;" points="370.211,86.05 370.211,70.941 372.671,70.941 372.671,89.126 369.088,89.126 361.573,73.936 
	361.466,73.936 361.466,89.126 359.006,89.126 359.006,70.941 362.589,70.941 370.104,86.05 "/>
<rect x="378.66" y="70.941" style="fill:#FFFFFF;" width="2.541" height="18.185"/>
<polygon style="fill:#FFFFFF;" points="393.02,86.131 397.54,70.941 400.268,70.941 394.384,89.126 391.55,89.126 385.666,70.941 
	388.394,70.941 392.914,86.131 "/>
<polygon style="fill:#FFFFFF;" points="404.733,70.941 416.794,70.941 416.794,73.214 407.273,73.214 407.273,78.723 
	415.564,78.723 415.564,80.996 407.273,80.996 407.273,86.853 416.794,86.853 416.794,89.126 404.733,89.126 "/>
<g>
	<path style="fill:#FFFFFF;" d="M429.683,79.285c1.337,0,2.086-0.963,2.086-2.087v-2.005c0-1.23-0.802-1.979-2.086-1.979h-5.242
		v6.071C424.441,79.285,429.683,79.285,429.683,79.285z M424.441,81.45v7.676H421.9V70.941h6.846c1.872,0,3.37,0.428,4.333,1.31
		c0.962,0.883,1.363,2.219,1.363,3.904c0,1.605-0.375,2.915-1.31,3.851c-0.695,0.695-1.604,1.203-3.022,1.364l4.493,7.755h-2.914
		l-4.253-7.676h-2.995V81.45z"/>
	<path style="fill:#FFFFFF;" d="M441.528,75.354c0,1.712,0.883,2.38,2.915,2.942l2.915,0.802c3.156,0.855,4.92,2.219,4.92,5.215
		c0,3.21-3.129,5.214-6.766,5.214s-6.766-1.738-7.087-5.696h2.541c0.268,2.46,2.086,3.477,4.493,3.477
		c2.406,0,4.279-1.016,4.279-2.941c0-1.551-0.856-2.381-2.755-2.915l-3.556-0.99c-2.969-0.828-4.386-2.433-4.386-5.107
		c0-2.728,2.487-4.814,6.23-4.814c3.477,0,6.232,1.632,6.552,5.35h-2.54c-0.214-2.407-2.033-3.13-4.012-3.13
		C442.973,72.759,441.528,73.749,441.528,75.354"/>
</g>
<rect x="457.172" y="70.941" style="fill:#FFFFFF;" width="2.541" height="18.185"/>
<polygon style="fill:#FFFFFF;" points="463.777,70.941 477.175,70.941 477.175,73.214 471.747,73.214 471.747,89.126 
	469.206,89.126 469.206,73.214 463.777,73.214 "/>
<polygon style="fill:#FFFFFF;" points="479.34,70.941 482.122,70.941 486.668,79.391 491.294,70.941 493.996,70.941 487.924,81.905 
	487.924,89.126 485.385,89.126 485.385,81.879 "/>
<g>
	<path style="fill:#FFFFFF;" d="M79.904,46.462h-2.536c2.511,9.972,10.652,16.441,22.516,17.902v39.292h-0.003v6.578
		c-0.072-0.009-0.144-0.016-0.215-0.027l-0.251-0.059l-0.008,0.02c-14.701-2.253-20.992-14.807-22.459-22.09l-0.011,0.008
		c-0.327-1.38-0.635-4.215-0.464-4.231c0.118,0.203,0.296,0.847,0.702,1.742c0.488,0.968,1.039,1.954,1.671,2.941
		c2.623,4.092,7.166,9.009,14.477,11.069l-0.432-2.699C79.985,92.56,76.597,78.03,76.595,75.812l-0.005-0.001h-0.01V75.7
		c-0.103-1.174-0.273-3.579-0.107-3.594c0.12,0.206,0.301,0.866,0.721,1.784c0.483,0.956,1.028,1.93,1.652,2.904
		c2.376,3.706,6.335,8.081,12.489,10.406l-0.454-2.836c-10.204-4.622-13.65-15.831-14.201-19.439l-0.008-0.005
		c-0.167-1.014-0.703-5.864-0.092-4.622v-0.016c0.615,1.352,1.363,2.765,2.266,4.175c2.091,3.262,5.406,7.044,10.365,9.49
		l-0.486-3.035c-6.025-3.604-9.293-9.57-10.869-13.954c-0.792-2.014-1.867-5.339-2.33-9.007h-0.344
		c-0.424,3.355-1.359,6.423-2.123,8.464c-1.481,4.373-4.714,10.602-10.861,14.37l-0.492,3.072c4.854-2.448,8.11-6.178,10.175-9.4
		c0.897-1.4,1.64-2.803,2.253-4.147c0.622-1.294,0.082,3.591-0.086,4.609l-0.001,0.001c-0.545,3.583-3.946,14.695-14.013,19.368
		l-0.455,2.84c6.048-2.342,9.949-6.667,12.302-10.335c0.602-0.939,1.129-1.879,1.599-2.803c0.456-0.971,0.644-1.672,0.768-1.885
		c0.169,0.015-0.012,2.523-0.114,3.667v0.037H74.13c0,2.204-3.354,16.611-16.109,21.036l-0.434,2.705
		c7.202-2.09,11.692-6.955,14.293-11.013c0.609-0.952,1.143-1.904,1.618-2.839c0.441-0.95,0.627-1.634,0.749-1.845
		c0.171,0.016-0.137,2.851-0.464,4.231l-0.003-0.002c-1.469,7.286-7.764,19.836-22.466,22.086l-0.008-0.021l-0.261,0.061
		c-0.067,0.01-0.137,0.017-0.204,0.026v-6.579h-0.003V64.364c11.863-1.462,20.005-7.93,22.516-17.902h-2.536
		c-1.434,4.952-6.13,14.139-21.32,15.586l-1.108,0.105v41.503v9.264c0.8-0.041,1.583-0.107,2.343-0.199h0.109l0.107-0.027
		c14.567-1.872,21.781-12.975,24.417-21.146c2.635,8.169,9.845,19.266,24.4,21.144l0.116,0.03h0.116
		c0.758,0.092,1.538,0.157,2.336,0.199v-5.181v-4.083V62.153l-1.109-0.105C86.034,60.601,81.337,51.413,79.904,46.462"/>
	<path style="fill:#FFFFFF;" d="M68.677,41.255l-0.321,0.736c-3.968,9.108-10.8,12.779-26.108,14.03l-1.124,0.092v48.817
		l2.449,1.436V58.364c15.016-1.389,22.404-5.444,26.697-14.66h10.183c4.358,9.379,11.744,13.495,26.697,14.882v47.779l2.449-1.436
		V56.335l-1.125-0.092c-15.04-1.229-22.117-5.092-26.107-14.253l-0.321-0.736H68.677V41.255z"/>
	<path style="fill:#FFFFFF;" d="M69.171,110.573h-0.622v0.189c-0.006,0.344-0.309,0.388-0.438,0.388l-0.001,0.002h-0.77v0.579h1.209
		v3.243H67.34v0.578h2.936v-0.578h-1.105C69.171,114.974,69.171,110.573,69.171,110.573z"/>
	<path style="fill:#FFFFFF;" d="M74.247,114.366c0,0.439-0.401,0.71-1.002,0.71s-1.001-0.271-1.001-0.71v-0.381
		c0-0.439,0.4-0.717,1.001-0.717s1.002,0.279,1.002,0.717V114.366z M72.368,112.03v-0.314c0-0.439,0.394-0.667,0.877-0.667
		c0.484,0,0.878,0.227,0.878,0.667v0.314c0,0.439-0.394,0.667-0.878,0.667C72.761,112.696,72.368,112.469,72.368,112.03
		 M74.081,112.96c0.483-0.219,0.718-0.607,0.718-1.149c0-0.842-0.691-1.347-1.555-1.347c-0.863,0-1.554,0.505-1.554,1.347
		c0,0.542,0.235,0.93,0.719,1.149c-0.532,0.205-0.857,0.645-0.857,1.26c0,0.988,0.76,1.443,1.692,1.443
		c0.933,0,1.693-0.454,1.693-1.443C74.937,113.604,74.613,113.165,74.081,112.96"/>
	<path style="fill:#FFFFFF;" d="M79.186,114.131c0,0.52-0.393,0.945-0.987,0.945c-0.588,0-0.995-0.424-0.995-0.945v-0.41
		c0-0.52,0.408-0.871,1.002-0.871s0.98,0.351,0.98,0.871V114.131z M78.302,112.279c-0.435,0-0.843,0.169-1.099,0.513v-0.491
		c0-0.747,0.387-1.252,1.008-1.252c0.553,0,0.843,0.278,0.898,0.762h0.635c-0.083-0.85-0.553-1.348-1.534-1.348
		c-1.215,0-1.699,1.077-1.699,2.724c0,1.618,0.442,2.475,1.686,2.475c1.126,0,1.678-0.915,1.678-1.757
		C79.877,112.93,79.29,112.279,78.302,112.279"/>
	<path style="fill:#FFFFFF;" d="M81.223,110.573v0.579h2.139c-0.712,0.779-1.426,2.214-1.426,4.4h0.705
		c-0.011-3.081,1.398-4.387,1.55-4.552v-0.427H81.223z"/>
</g>
<g>
	<path style="fill:none;" d="M0,79.611c0-5.937,2.433-9.654,7.514-9.654c3.504,0,6.178,2.113,6.419,5.563h-2.54
		c-0.241-2.14-1.738-3.344-4.118-3.344c-2.541,0-4.466,1.846-4.466,4.466v5.616c0,2.541,2.086,4.466,4.626,4.466
		c2.407,0,4.011-1.016,4.253-3.476h2.54c-0.241,3.423-3.049,5.696-6.767,5.696C2.647,88.944,0,85.281,0,79.611"/>
</g>
<polygon style="fill:none;" points="30.191,80.333 21.606,80.333 21.606,88.543 19.066,88.543 19.066,70.358 21.606,70.358 
	21.606,78.06 30.191,78.06 30.191,70.358 32.731,70.358 32.731,88.543 30.191,88.543 "/>
<rect x="38.721" y="70.358" style="fill:none;" width="2.54" height="18.185"/>
<g>
	<path style="fill:none;" d="M494,79.611c0-5.937,2.433-9.654,7.514-9.654c3.504,0,6.178,2.113,6.419,5.563h-2.54
		c-0.241-2.14-1.738-3.344-4.118-3.344c-2.541,0-4.466,1.846-4.466,4.466v5.616c0,2.541,2.086,4.466,4.626,4.466
		c2.407,0,4.011-1.016,4.253-3.476h2.54c-0.241,3.423-3.049,5.696-6.767,5.696C496.647,88.944,494,85.281,494,79.611"/>
</g>
<polygon style="fill:none;" points="524.191,80.333 515.606,80.333 515.606,88.543 513.066,88.543 513.066,70.358 515.606,70.358 
	515.606,78.06 524.191,78.06 524.191,70.358 526.731,70.358 526.731,88.543 524.191,88.543 "/>
<rect x="532.721" y="70.358" style="fill:none;" width="2.54" height="18.185"/>
<g>
	<path style="fill:none;" d="M74.984,0c5.937,0,9.654,2.433,9.654,7.514c0,3.504-2.113,6.178-5.563,6.419v-2.54
		c2.14-0.241,3.344-1.738,3.344-4.118c0-2.541-1.846-4.466-4.466-4.466h-5.616c-2.541,0-4.466,2.086-4.466,4.626
		c0,2.407,1.016,4.011,3.476,4.253v2.54c-3.423-0.241-5.696-3.049-5.696-6.767C65.651,2.647,69.315,0,74.984,0"/>
</g>
<polygon style="fill:none;" points="74.262,30.191 74.262,21.606 66.052,21.606 66.052,19.066 84.237,19.066 84.237,21.606 
	76.535,21.606 76.535,30.191 84.237,30.191 84.237,32.731 66.052,32.731 66.052,30.191 "/>
<rect x="66.052" y="38.721" style="fill:none;" width="18.185" height="2.54"/>
<g>
	<path style="fill:none;" d="M74.984,115.656c5.937,0,9.654,2.433,9.654,7.514c0,3.504-2.113,6.178-5.563,6.419v-2.54
		c2.14-0.241,3.344-1.738,3.344-4.118c0-2.541-1.846-4.466-4.466-4.466h-5.616c-2.541,0-4.466,2.086-4.466,4.626
		c0,2.407,1.016,4.011,3.476,4.253v2.54c-3.423-0.241-5.696-3.049-5.696-6.767C65.651,118.303,69.315,115.656,74.984,115.656"/>
</g>
<polygon style="fill:none;" points="74.262,145.846 74.262,137.262 66.052,137.262 66.052,134.721 84.237,134.721 84.237,137.262 
	76.535,137.262 76.535,145.846 84.237,145.846 84.237,148.387 66.052,148.387 66.052,145.846 "/>
<rect x="66.052" y="154.376" style="fill:none;" width="18.185" height="2.54"/>
</svg>
